<svg width="175" height="73" viewBox="0 0 175 73" fill="none" xmlns="http://www.w3.org/2000/svg">
<mask id="mask0_0_1" style="mask-type:luminance" maskUnits="userSpaceOnUse" x="0" y="0" width="60" height="73">
<path d="M59.465 0H0V72.6H59.465V0Z" fill="white"/>
</mask>
<g mask="url(#mask0_0_1)">
<path d="M20.085 38.695V72.595H0V23.985C0.000177419 22.8208 0.382749 21.6889 1.0889 20.7633C1.79505 19.8377 2.78568 19.1696 3.90848 18.8619C5.03128 18.5541 6.2241 18.6236 7.30353 19.0598C8.38295 19.496 9.28924 20.2746 9.88303 21.276C9.89103 21.284 9.89102 21.292 9.89902 21.299L20.085 38.695Z" fill="url(#paint0_linear_0_1)"/>
<path d="M59.4648 0V48.658C59.4651 49.8252 59.0812 50.96 58.3723 51.8872C57.6633 52.8144 56.6688 53.4823 55.5423 53.788C54.4158 54.0936 53.2201 54.0198 52.1398 53.5781C51.0594 53.1364 50.1545 52.3513 49.5649 51.344L39.3799 33.937V0H59.4648Z" fill="url(#paint1_linear_0_1)"/>
<path d="M59.4651 48.658V72.6H39.9461L25.9981 48.785C25.9981 48.777 25.9901 48.777 25.9901 48.769L25.9821 48.761L20.0821 38.695L9.89609 21.304C9.88809 21.297 9.88807 21.289 9.88007 21.281C9.28628 20.2796 8.38002 19.5009 7.3006 19.0648C6.22117 18.6286 5.02835 18.5591 3.90555 18.8668C2.78275 19.1746 1.79212 19.8426 1.08597 20.7682C0.379819 21.6938 -0.00275227 22.8258 -0.00292969 23.99V0H19.5161L35.8781 27.968C35.8913 27.9787 35.9022 27.9919 35.9101 28.007L38.5001 32.439L38.5081 32.447C38.5161 32.455 38.5161 32.471 38.5241 32.478L39.377 33.937L49.5631 51.344C50.1523 52.3523 51.0573 53.1383 52.138 53.5807C53.2188 54.0231 54.4152 54.0972 55.5423 53.7915C56.6693 53.4857 57.6643 52.8172 58.3734 51.8893C59.0825 50.9614 59.4661 49.8258 59.4651 48.658Z" fill="url(#paint2_linear_0_1)"/>
<g style="mix-blend-mode:multiply" opacity="0.16">
<path d="M20.085 38.6949V45.7729C12.051 32.4549 3.555 32.9089 0 33.8649V23.9899C0.000177419 22.8257 0.382749 21.6938 1.0889 20.7682C1.79505 19.8425 2.78568 19.1745 3.90848 18.8667C5.03128 18.559 6.2241 18.6285 7.30353 19.0647C8.38295 19.5009 9.28924 20.2795 9.88303 21.2809C9.89103 21.2889 9.89102 21.2969 9.89902 21.3039L20.085 38.6949Z" fill="black"/>
</g>
<g style="mix-blend-mode:multiply" opacity="0.16">
<path d="M59.4648 38.7429V48.6579C59.4651 49.8251 59.0812 50.9599 58.3723 51.8871C57.6633 52.8143 56.6688 53.4822 55.5423 53.7879C54.4158 54.0935 53.2201 54.0197 52.1398 53.578C51.0594 53.1363 50.1545 52.3512 49.5649 51.3439L39.3799 33.9369V28.1189C47.7809 37.7069 55.3918 38.9499 59.4648 38.7429Z" fill="black"/>
</g>
<g style="mix-blend-mode:screen" opacity="0.5">
<path d="M35.881 27.968C34.375 25.736 32.948 23.448 31.481 21.201L29.313 17.766L27.178 14.327C25.7507 12.023 24.3427 9.71166 22.954 7.39299C21.631 5.21699 20.348 3.01699 19.048 0.832993C15.948 0.848993 12.856 0.80899 9.763 0.80899L4.87802 0.746002C3.46669 0.730002 2.05333 0.705996 0.638 0.673996C0.582 3.368 0.502001 6.054 0.414001 8.748C0.271001 11.665 0.191 14.582 0 17.499V0H19.519L35.881 27.968Z" fill="white"/>
</g>
<g style="mix-blend-mode:multiply" opacity="0.25">
<path d="M59.4647 0V46.187C59.1857 42.338 59.0257 38.487 58.8907 34.638L58.7468 28.868L58.6597 23.09L58.6277 17.32L58.6597 11.549L58.7468 5.771L58.8828 0.541992C57.2008 0.478992 55.5198 0.422991 53.8458 0.334991C51.9728 0.255991 50.0918 0.135 48.2188 0H59.4647Z" fill="black"/>
</g>
<g style="mix-blend-mode:screen" opacity="0.5">
<path d="M56.324 72.5999H39.946L25.998 48.7849C27.345 50.6499 28.6281 52.5549 29.8881 54.4759C30.5171 55.4399 31.147 56.4049 31.761 57.3849C32.375 58.3649 32.9961 59.3219 33.5941 60.3099C34.8127 62.2633 36.0027 64.2346 37.1641 66.2239C37.7641 67.2039 38.336 68.2079 38.91 69.2049L40.41 71.8189C42.985 71.8669 45.5591 71.9379 48.1411 72.0579C50.8651 72.1779 53.599 72.3369 56.324 72.5999Z" fill="white"/>
</g>
<g style="mix-blend-mode:multiply" opacity="0.25">
<path d="M20.0848 48.0439V72.5999H2.9248C4.3518 72.4559 5.7858 72.3449 7.2128 72.2489C8.6398 72.1529 10.0738 72.0899 11.5128 72.0179C12.9388 71.9699 14.3658 71.899 15.8008 71.875C16.9558 71.851 18.1118 71.8189 19.2758 71.8029C19.2598 70.0259 19.2438 68.24 19.2678 66.463C19.2758 64.415 19.3228 62.3629 19.3678 60.3179C19.4318 58.2779 19.5118 56.229 19.6228 54.181C19.7338 52.133 19.8688 50.0919 20.0848 48.0439Z" fill="black"/>
</g>
<g style="mix-blend-mode:screen" opacity="0.7">
<path d="M20.085 38.695L9.89902 21.304C9.89102 21.297 9.89103 21.289 9.88303 21.281C9.28924 20.2796 8.38295 19.5009 7.30353 19.0648C6.2241 18.6286 5.03128 18.5591 3.90848 18.8668C2.78568 19.1746 1.79505 19.8426 1.0889 20.7682C0.382749 21.6938 0.000177419 22.8258 0 23.99V0C0.151 2 0.223026 4 0.327026 5.994C0.383026 6.994 0.42201 7.994 0.45401 8.994L0.554016 11.994C0.602016 13.994 0.673026 15.994 0.689026 17.988C0.697026 18.641 0.713008 19.288 0.721008 19.941C0.849008 19.805 0.983999 19.67 1.112 19.534C1.36168 19.3139 1.62235 19.1067 1.89301 18.913C2.17201 18.737 2.47502 18.594 2.76202 18.442C3.07202 18.315 3.383 18.219 3.694 18.108C4.021 18.044 4.34002 17.972 4.66602 17.932C5.00102 17.916 5.328 17.892 5.655 17.9C5.982 17.948 6.31601 17.956 6.64301 18.036C6.96522 18.1131 7.28192 18.2117 7.591 18.331C7.89704 18.4598 8.19289 18.6115 8.47601 18.785C8.7573 18.9647 9.0247 19.1653 9.276 19.385C9.499 19.624 9.75401 19.847 9.95401 20.102L10.512 20.902L10.412 20.782L10.523 20.934C12.181 23.8513 13.8097 26.7897 15.409 29.749C16.2144 31.223 17.0034 32.708 17.776 34.204C18.554 35.698 19.343 37.181 20.085 38.695Z" fill="white"/>
</g>
<g style="mix-blend-mode:screen" opacity="0.7">
<path d="M59.4653 48.6579V72.5999C59.3213 70.6069 59.2504 68.6069 59.1464 66.6139C59.0424 64.6209 58.9943 62.6209 58.9153 60.6289C58.8753 58.6359 58.8154 56.6359 58.7794 54.6429C58.7714 53.9899 58.7554 53.3359 58.7474 52.6829C58.5804 52.8659 58.4054 53.0489 58.2294 53.2249C57.5823 53.7866 56.8251 54.2072 56.0063 54.4599C55.6002 54.5856 55.184 54.6763 54.7623 54.7309C54.3352 54.7696 53.9054 54.7642 53.4794 54.7149C52.6244 54.6289 51.798 54.3598 51.0563 53.9259C50.683 53.7012 50.3378 53.4327 50.0283 53.1259L49.5583 52.6399C49.4388 52.489 49.327 52.3321 49.2233 52.1699L49.0643 51.9379L48.9924 51.8269L48.9203 51.7149L48.8804 51.6509L48.6094 51.1649L48.0604 50.1929L46.9523 48.2399L44.7844 44.3269L42.6403 40.3899C41.9233 39.0829 41.2454 37.7519 40.5524 36.4289C39.8664 35.1219 39.1813 33.8069 38.5273 32.4829L39.3804 33.9419L49.5663 51.3489C50.1564 52.3561 51.0617 53.1409 52.1424 53.5822C53.2231 54.0235 54.4189 54.0967 55.5453 53.7905C56.6718 53.4843 57.666 52.8157 58.3745 51.888C59.083 50.9603 59.4664 49.8252 59.4653 48.6579Z" fill="white"/>
</g>
</g>
<path d="M90.1747 44.8182V71H85.3935L74.0028 54.5213H73.8111V71H68.2756V44.8182H73.1335L84.4347 61.2841H84.6648V44.8182H90.1747ZM94.646 71V51.3636H100.092V71H94.646ZM97.3817 48.8324C96.5721 48.8324 95.8775 48.5639 95.2979 48.027C94.7269 47.4815 94.4414 46.8295 94.4414 46.071C94.4414 45.321 94.7269 44.6776 95.2979 44.1406C95.8775 43.5952 96.5721 43.3224 97.3817 43.3224C98.1914 43.3224 98.8817 43.5952 99.4528 44.1406C100.032 44.6776 100.322 45.321 100.322 46.071C100.322 46.8295 100.032 47.4815 99.4528 48.027C98.8817 48.5639 98.1914 48.8324 97.3817 48.8324ZM120.793 56.9631L115.807 57.2699C115.722 56.8437 115.538 56.4602 115.257 56.1193C114.976 55.7699 114.605 55.4929 114.145 55.2884C113.693 55.0753 113.152 54.9688 112.521 54.9688C111.678 54.9688 110.966 55.1477 110.386 55.5057C109.807 55.8551 109.517 56.3239 109.517 56.9119C109.517 57.3807 109.705 57.777 110.08 58.1009C110.455 58.4247 111.098 58.6847 112.01 58.8807L115.564 59.5966C117.473 59.9886 118.896 60.6193 119.834 61.4886C120.771 62.358 121.24 63.5 121.24 64.9148C121.24 66.2017 120.861 67.331 120.102 68.3026C119.352 69.2741 118.321 70.0327 117.009 70.5781C115.705 71.1151 114.2 71.3835 112.496 71.3835C109.896 71.3835 107.825 70.8423 106.283 69.7599C104.749 68.669 103.849 67.1861 103.585 65.3111L108.942 65.0298C109.104 65.8224 109.496 66.4276 110.118 66.8452C110.74 67.2543 111.537 67.4588 112.509 67.4588C113.463 67.4588 114.23 67.2756 114.81 66.9091C115.398 66.5341 115.696 66.0526 115.705 65.4645C115.696 64.9702 115.487 64.5653 115.078 64.25C114.669 63.9261 114.038 63.679 113.186 63.5085L109.786 62.831C107.868 62.4474 106.44 61.7827 105.503 60.8366C104.574 59.8906 104.109 58.6847 104.109 57.2188C104.109 55.9574 104.45 54.8707 105.132 53.9588C105.822 53.0469 106.79 52.3438 108.034 51.8494C109.287 51.3551 110.753 51.108 112.432 51.108C114.912 51.108 116.864 51.6321 118.287 52.6804C119.719 53.7287 120.554 55.1562 120.793 56.9631ZM130.269 71.3707C129.016 71.3707 127.9 71.1534 126.919 70.7188C125.939 70.2756 125.164 69.6236 124.593 68.7628C124.03 67.8935 123.749 66.8111 123.749 65.5156C123.749 64.4247 123.949 63.5085 124.35 62.767C124.75 62.0256 125.296 61.429 125.986 60.9773C126.676 60.5256 127.461 60.1847 128.338 59.9545C129.225 59.7244 130.154 59.5625 131.125 59.4688C132.267 59.3494 133.188 59.2386 133.887 59.1364C134.586 59.0256 135.093 58.8636 135.408 58.6506C135.723 58.4375 135.881 58.1222 135.881 57.7045V57.6278C135.881 56.8182 135.625 56.1918 135.114 55.7486C134.611 55.3054 133.895 55.0838 132.966 55.0838C131.986 55.0838 131.206 55.3011 130.627 55.7358C130.047 56.1619 129.664 56.6989 129.476 57.3466L124.439 56.9375C124.695 55.7443 125.198 54.7131 125.948 53.8438C126.698 52.9659 127.665 52.2926 128.85 51.8239C130.043 51.3466 131.424 51.108 132.992 51.108C134.083 51.108 135.127 51.2358 136.124 51.4915C137.13 51.7472 138.02 52.1435 138.796 52.6804C139.58 53.2173 140.198 53.9077 140.65 54.7514C141.101 55.5866 141.327 56.5881 141.327 57.7557V71H136.162V68.277H136.009C135.694 68.8906 135.272 69.4318 134.743 69.9006C134.215 70.3608 133.58 70.723 132.838 70.9872C132.097 71.2429 131.24 71.3707 130.269 71.3707ZM131.828 67.6122C132.63 67.6122 133.337 67.4545 133.951 67.1392C134.564 66.8153 135.046 66.3807 135.395 65.8352C135.745 65.2898 135.919 64.6719 135.919 63.9815V61.8977C135.749 62.0085 135.515 62.1108 135.216 62.2045C134.926 62.2898 134.598 62.3707 134.232 62.4474C133.865 62.5156 133.499 62.5795 133.132 62.6392C132.766 62.6903 132.434 62.7372 132.135 62.7798C131.496 62.8736 130.938 63.0227 130.461 63.2273C129.983 63.4318 129.613 63.7088 129.348 64.0582C129.084 64.3991 128.952 64.8253 128.952 65.3366C128.952 66.0781 129.221 66.6449 129.757 67.0369C130.303 67.4205 130.993 67.6122 131.828 67.6122ZM145.552 71V51.3636H150.743V54.8281H150.973C151.382 53.6776 152.064 52.7699 153.018 52.1051C153.973 51.4403 155.115 51.108 156.444 51.108C157.791 51.108 158.937 51.4446 159.883 52.1179C160.829 52.7827 161.46 53.6861 161.775 54.8281H161.98C162.38 53.7031 163.105 52.804 164.153 52.1307C165.21 51.4489 166.458 51.108 167.899 51.108C169.731 51.108 171.218 51.6918 172.36 52.8594C173.511 54.0185 174.086 55.6634 174.086 57.794V71H168.653V58.8679C168.653 57.777 168.363 56.9588 167.784 56.4134C167.204 55.8679 166.48 55.5952 165.61 55.5952C164.622 55.5952 163.85 55.9105 163.297 56.5412C162.743 57.1634 162.466 57.9858 162.466 59.0085V71H157.186V58.7528C157.186 57.7898 156.909 57.0227 156.355 56.4517C155.809 55.8807 155.089 55.5952 154.194 55.5952C153.589 55.5952 153.044 55.7486 152.558 56.0554C152.081 56.3537 151.701 56.7756 151.42 57.321C151.139 57.858 150.998 58.4886 150.998 59.2131V71H145.552Z" fill="black"/>
<defs>
<linearGradient id="paint0_linear_0_1" x1="10.0425" y1="72.4872" x2="10.0425" y2="24.0651" gradientUnits="userSpaceOnUse">
<stop stop-color="#233B55"/>
<stop offset="1" stop-color="#131D32"/>
</linearGradient>
<linearGradient id="paint1_linear_0_1" x1="49.4224" y1="1.29536" x2="49.4224" y2="48.1982" gradientUnits="userSpaceOnUse">
<stop stop-color="#233B55"/>
<stop offset="1" stop-color="#131D32"/>
</linearGradient>
<linearGradient id="paint2_linear_0_1" x1="-0.00292969" y1="36.3" x2="59.4651" y2="36.3" gradientUnits="userSpaceOnUse">
<stop stop-color="#FCC400"/>
<stop offset="0.162" stop-color="#FBC000"/>
<stop offset="0.307" stop-color="#FBB500"/>
<stop offset="0.446" stop-color="#FBA300"/>
<stop offset="0.581" stop-color="#FA8900"/>
<stop offset="0.712" stop-color="#FA6800"/>
<stop offset="0.842" stop-color="#F93F00"/>
<stop offset="0.967" stop-color="#F81000"/>
<stop offset="1" stop-color="#F80300"/>
</linearGradient>
</defs>
</svg>
